<svg xmlns="http://www.w3.org/2000/svg" aria-hidden="true" style="position:absolute;width:0;height:0;overflow:hidden"><defs><symbol id="icon-logo" viewBox="0 0 128 32"><path fill="#f4e041" d="M35.42 27.82c.17 1.224-.293 2.392-1.132 3.125a3.092 3.092 0 0 1-1.017.598 3.126 3.126 0 0 1-1.251.171c-.011 0-.023 0-.034-.003a3.415 3.415 0 0 1-2.225-1.052c-.931-.989-.904-2.218-.893-2.475 0-.124.006-.244.02-.363H18.774c.014.119.02.24.02.363.011.257.038 1.486-.892 2.475a3.417 3.417 0 0 1-2.225 1.052c-.011.003-.023.003-.034.003a3.144 3.144 0 0 1-1.764-.407 3.147 3.147 0 0 1-.504-.361l-.001-.001c-.837-.734-1.3-1.901-1.13-3.125H8.601l.074-.271 1.36-5.006.297-.014 3.48-.154a.282.282 0 0 0 .271-.292.279.279 0 0 0-.296-.268l-3.597.16.494-1.824 3.107.255a.281.281 0 0 0 .282-.257.281.281 0 0 0-.258-.303l-2.98-.247.501-1.847.266.102 2.652 1.015a.28.28 0 1 0 .204-.523l-2.973-1.138L15.893.986l3.18 9.697c.748-.376 2.492-1.146 4.75-1.111h.02c2.258-.035 4.002.735 4.75 1.111l3.18-9.697 4.408 16.222-.266.101-2.707 1.037a.28.28 0 1 0 .204.523l2.918-1.117.501 1.847-2.98.247a.282.282 0 0 0-.259.303.283.283 0 0 0 .282.257h.024l3.084-.255.494 1.824-.296-.014-3.302-.146a.28.28 0 1 0-.025.56l3.779.168 1.36 5.006.074.271h-3.643z" style="fill:var(--color1, #f4e041)"/><path d="m39.431 28.1-.074-.269-.077-.282-1.357-4.994-.295-.013-.297-.014 1.361 5.01h-3.599l.044.319a3.25 3.25 0 0 1-.734 2.572 2.898 2.898 0 0 1-.75.625 2.797 2.797 0 0 1-1.345.384 3.097 3.097 0 0 1-.569-.038 3.109 3.109 0 0 1-1.772-.934c-.791-.841-.834-1.868-.816-2.283 0-.122.006-.23.017-.331l.037-.313h-10.75l.037.313c.011.101.018.209.018.342.017.404-.027 1.431-.817 2.272a3.11 3.11 0 0 1-2.051.966c-.096.006-.193.009-.289.006a2.864 2.864 0 0 1-.867-.161 2.69 2.69 0 0 1-.477-.222h-.001a2.439 2.439 0 0 1-.388-.271 2.967 2.967 0 0 1-.363-.355 3.257 3.257 0 0 1-.734-2.572l.044-.319H8.969l1.361-5.01-.297.014-.296.013L8.23 28.1h3.7c-.093 1.649.864 3.175 2.366 3.706 1.308.463 2.84.079 3.813-.957.936-.996.989-2.206.969-2.666l-.001-.083h9.509v.07c-.021.473.031 1.682.968 2.679A3.69 3.69 0 0 0 32.224 32c.387 0 .774-.063 1.143-.194 1.502-.53 2.459-2.057 2.366-3.706h3.7zm-28.749-7.95-.288-.024-.504 1.861.297-.013.296-.014.486-1.786-.288-.024zM31.796 0 31.5.899l-2.653 8.089-.426 1.301c-1.078-.502-2.676-1.031-4.58-.998h-.015c-1.91-.031-3.507.495-4.585.998l-.426-1.301L16.162.899 15.866 0l-4.648 17.105.266.103.266.101 4.167-15.338 2.357 7.191.63 1.919.295-.149c1.014-.511 2.645-1.117 4.622-1.08h.024c1.983-.034 3.602.57 4.617 1.08l.296.149.629-1.919c.785-2.397 1.571-4.793 2.359-7.191l4.167 15.338.266-.101.265-.103L31.796 0zM11.068 17.65l-.523 1.925.575.048.48-1.768-.533-.205zm25.525.001-.265.101-.266.102.48 1.768.288-.024.286-.022-.523-1.925zm.672 2.475-.574.048.486 1.786.296.014.296.013-.504-1.861z" opacity=".87" style="fill:var(--color2, #000)"/><path d="M26.076 18.399a.599.599 0 0 1-.602-.596v-3.614c0-.33.269-.596.602-.596s.602.267.602.596v3.614a.6.6 0 0 1-.602.596zM21.939 17.768a.601.601 0 0 1-.663-.53l-.293-2.728a.599.599 0 0 1 .535-.657.601.601 0 0 1 .663.53l.293 2.728a.598.598 0 0 1-.535.657zM14.615 18.709a.282.282 0 0 1-.366.16l-7.037-2.694c-.147-.056-.22-.219-.163-.363s.221-.216.367-.16l7.037 2.694a.28.28 0 0 1 .161.363zM14.068 20.149a.281.281 0 0 1-.282.257h-.024l-7.519-.623a.28.28 0 1 1 .048-.558l7.519.622a.281.281 0 0 1 .258.303zM14.079 22.083a.28.28 0 0 1-.271.292l-7.55.335a.28.28 0 0 1-.013-.561l7.538-.334a.278.278 0 0 1 .296.268zM40.445 16.175l-7.037 2.694a.285.285 0 0 1-.102.02.28.28 0 0 1-.102-.543l7.037-2.694a.285.285 0 0 1 .367.16.281.281 0 0 1-.163.363zM41.67 19.48a.282.282 0 0 1-.259.303l-7.543.623a.283.283 0 0 1-.282-.257.282.282 0 0 1 .259-.303l7.519-.622a.28.28 0 0 1 .306.255zM41.68 22.442a.283.283 0 0 1-.283.268h-.013l-7.537-.335a.28.28 0 1 1 .025-.56l7.537.334a.282.282 0 0 1 .271.293z" opacity=".87" style="fill:var(--color2, #000)"/><path fill="#fff" d="M31.903 29.021a4.125 4.125 0 0 1 .115 2.412l-.115-2.412z" style="fill:var(--color3, #fff)"/><path d="M32.019 31.713a.281.281 0 0 1-.275-.348 3.904 3.904 0 0 0-.109-2.253c-.051-.146.027-.306.176-.356s.309.027.36.174a4.442 4.442 0 0 1 .124 2.571.286.286 0 0 1-.275.212z" opacity=".87" style="fill:var(--color2, #000)"/><path fill="#fff" d="M33.75 28.91c.174.276.324.613.371.999.057.453-.046.848-.186 1.162l-.185-2.161z" style="fill:var(--color3, #fff)"/><path d="M33.935 31.35a.28.28 0 0 1-.26-.394c.15-.337.204-.678.163-1.015a2.185 2.185 0 0 0-.33-.885c-.082-.132-.041-.305.092-.386s.307-.041.39.091c.227.362.364.737.411 1.113.054.438-.016.878-.207 1.309a.283.283 0 0 1-.259.167z" opacity=".87" style="fill:var(--color2, #000)"/><path fill="#fff" d="M15.758 29.021a4.279 4.279 0 0 0-.232 1.116c-.036.507.028.947.117 1.296l.115-2.412z" style="fill:var(--color3, #fff)"/><path d="M15.639 31.714a.285.285 0 0 1-.275-.213 4.436 4.436 0 0 1 .124-2.571c.051-.146.213-.225.36-.174s.227.21.176.356a3.874 3.874 0 0 0-.109 2.252.281.281 0 0 1-.207.34.229.229 0 0 1-.068.01z" opacity=".87" style="fill:var(--color2, #000)"/><path fill="#fff" d="M13.91 28.91a2.431 2.431 0 0 0-.371.999c-.057.453.046.848.186 1.162l.185-2.161z" style="fill:var(--color3, #fff)"/><path d="M13.724 31.35a.283.283 0 0 1-.259-.167 2.44 2.44 0 0 1-.207-1.309c.047-.376.184-.749.411-1.113.082-.132.256-.173.39-.091s.174.254.092.386a2.185 2.185 0 0 0-.33.885c-.041.337.013.678.163 1.015a.278.278 0 0 1-.145.37.276.276 0 0 1-.115.024zM10.283 28.06H.301c-.166 0-.301-.108-.301-.239s.136-.239.301-.239h9.982c.166 0 .301.107.301.239s-.136.239-.301.239zM46.627 28.11h-9.385c-.156 0-.283-.126-.283-.281s.127-.281.283-.281h9.385c.156 0 .283.126.283.281s-.126.281-.283.281zM26.713 22.947c-.204.525-.676 1.093-1.275 1.179-.554.077-1.064-.216-1.431-.672a1.89 1.89 0 0 1-.136.296c-.092.163-.586.968-1.411.968h-.023c-.785-.014-1.466-.722-1.585-1.65a.281.281 0 0 1 .246-.313c.153-.02.298.09.316.243.091.716.596 1.152 1.032 1.159h.011c.52 0 .878-.61.918-.68a1.47 1.47 0 0 0 .156-.939c-.013-.043-.024-.087-.035-.13-.545.063-1.016-.126-1.102-.472-.098-.393.34-.839.979-.996.64-.157 1.238.034 1.336.427.082.324-.2.683-.659.888.014.052.027.114.038.181.229.755.816 1.197 1.269 1.135.351-.051.681-.453.825-.824.122-.314.105-.61.069-.803a.284.284 0 0 1 .558-.101c.048.264.071.668-.098 1.104zM53.916 22.878c-.484 0-.726-.133-.726-.4V11.49h-3.487c-.121 0-.212-.042-.273-.127s-.091-.224-.091-.418v-.291c0-.194.03-.334.091-.418s.151-.127.273-.127h8.517c.133 0 .224.042.272.127.061.085.091.224.091.418v.291c0 .194-.03.334-.091.418-.048.085-.139.127-.272.127h-3.432v10.988c0 .267-.242.4-.726.4h-.145zm7.352-.037c-.194 0-.333-.042-.418-.127s-.127-.224-.127-.418V10.653c0-.194.042-.334.127-.418s.224-.127.418-.127h6.338c.133 0 .224.042.272.127.06.085.091.224.091.418v.291c0 .194-.03.334-.091.418-.049.085-.139.127-.272.127h-5.284v4.148h4.74c.133 0 .224.042.272.127.061.085.091.224.091.418v.291c0 .194-.03.334-.091.418-.048.085-.139.127-.272.127h-4.74v4.439h5.303c.133 0 .224.042.272.127.061.085.091.224.091.418v.291c0 .194-.03.334-.091.418-.049.085-.139.127-.272.127h-6.356zm12.02.109c-.726 0-1.398-.085-2.016-.255s-1.084-.376-1.398-.619c-.23-.17-.345-.321-.345-.455 0-.145.079-.346.236-.6.169-.255.303-.382.4-.382.048 0 .175.061.381.182.375.206.775.382 1.199.528.436.145.95.218 1.544.218.702 0 1.271-.194 1.707-.582.448-.4.672-.922.672-1.565 0-.449-.121-.819-.363-1.11a2.545 2.545 0 0 0-.89-.71c-.339-.182-.835-.4-1.489-.655-.702-.279-1.259-.534-1.671-.764s-.763-.57-1.053-1.019c-.291-.461-.436-1.061-.436-1.801 0-.655.163-1.237.49-1.746.339-.509.811-.904 1.416-1.183.617-.291 1.326-.437 2.125-.437.411 0 .872.061 1.38.182.508.109.902.261 1.18.455.242.146.363.303.363.473 0 .133-.079.327-.236.582-.145.255-.26.382-.345.382a.686.686 0 0 1-.272-.091 4.181 4.181 0 0 1-.218-.127 4.04 4.04 0 0 0-1.889-.473c-.702 0-1.271.182-1.707.546-.424.364-.636.867-.636 1.51 0 .412.103.746.309 1.001.218.255.46.449.726.582.278.121.756.315 1.435.582.726.279 1.319.552 1.78.819.46.255.847.631 1.162 1.128.327.485.49 1.11.49 1.874 0 1.092-.363 1.953-1.09 2.583s-1.707.946-2.942.946zm9.588-.072c-.484 0-.726-.133-.726-.4V11.49h-3.487c-.121 0-.212-.042-.272-.127s-.091-.224-.091-.418v-.291c0-.194.03-.334.091-.418s.151-.127.272-.127h8.517c.133 0 .224.042.272.127.06.085.091.224.091.418v.291c0 .194-.03.334-.091.418-.049.085-.139.127-.272.127h-3.432v10.988c0 .267-.242.4-.726.4h-.145zm9.966 0c-.484 0-.726-.133-.726-.4V11.49h-3.487c-.121 0-.212-.042-.272-.127s-.091-.224-.091-.418v-.291c0-.194.03-.334.091-.418s.151-.127.272-.127h8.517c.133 0 .224.042.272.127.061.085.091.224.091.418v.291c0 .194-.03.334-.091.418-.048.085-.139.127-.272.127h-3.432v10.988c0 .267-.242.4-.726.4h-.145zm5.299 0c-.52 0-.781-.103-.781-.309a.86.86 0 0 1 .055-.255l4.304-11.952c.073-.194.315-.291.726-.291h.527c.436 0 .678.097.726.291l4.304 11.97a.61.61 0 0 1 .054.236c0 .206-.26.309-.781.309h-.145c-.424 0-.666-.097-.726-.291l-1.071-2.983h-5.339l-1.035 2.983c-.06.194-.303.291-.726.291h-.091zm6.701-4.658-1.907-5.421c-.061-.194-.133-.546-.218-1.055h-.036c-.097.485-.188.837-.272 1.055l-1.907 5.421h4.34zm7.868 4.73c-.726 0-1.398-.085-2.016-.255s-1.084-.376-1.398-.619c-.23-.17-.345-.321-.345-.455 0-.145.079-.346.236-.6.169-.255.303-.382.4-.382.048 0 .175.061.381.182.375.206.775.382 1.199.528.436.145.95.218 1.543.218.702 0 1.271-.194 1.707-.582.448-.4.672-.922.672-1.565 0-.449-.121-.819-.363-1.11a2.545 2.545 0 0 0-.89-.71c-.339-.182-.835-.4-1.489-.655-.702-.279-1.259-.534-1.671-.764s-.762-.57-1.053-1.019c-.291-.461-.436-1.061-.436-1.801 0-.655.163-1.237.49-1.746.339-.509.811-.904 1.416-1.183.617-.291 1.326-.437 2.125-.437.412 0 .872.061 1.38.182.508.109.902.261 1.18.455.242.146.363.303.363.473 0 .133-.079.327-.236.582-.145.255-.26.382-.345.382a.686.686 0 0 1-.272-.091 4.181 4.181 0 0 1-.218-.127 4.04 4.04 0 0 0-1.889-.473c-.702 0-1.271.182-1.707.546-.424.364-.636.867-.636 1.51 0 .412.103.746.309 1.001.218.255.46.449.726.582.278.121.757.315 1.435.582.726.279 1.32.552 1.78.819.46.255.847.631 1.162 1.128.327.485.49 1.11.49 1.874 0 1.092-.363 1.953-1.09 2.583s-1.707.946-2.942.946zm7.137-.072c-.484 0-.726-.133-.726-.4V10.471c0-.267.242-.4.726-.4h.145c.484 0 .726.133.726.4v5.567h.073l4.467-5.712c.133-.17.46-.255.981-.255h.182c.206 0 .363.024.471.073.11.036.164.091.164.164 0 .109-.06.23-.182.364l-4.539 5.676 5.502 5.985c.11.121.164.218.164.291 0 .097-.06.164-.181.2-.122.036-.327.055-.618.055h-.218a4.4 4.4 0 0 1-.635-.036.607.607 0 0 1-.364-.2l-5.193-5.858h-.073v5.694c0 .267-.242.4-.726.4h-.145z" opacity=".87" style="fill:var(--color2, #000)"/></symbol><symbol id="icon-photo-cover" viewBox="0 0 32 32"><path fill="#fff" d="M32 16c0 8.837-7.163 16-16 16S0 24.837 0 16 7.163 0 16 0s16 7.163 16 16z" style="fill:var(--color3, #fff)"/><path fill="#d0cfcf" d="M15.978 32C7.145 32.001-.035 24.796 0 15.968.035 7.122 7.188-.016 16.002 0A15.989 15.989 0 0 1 32 15.971C32.026 24.825 24.854 32 15.978 32zM5.14 26.311c5.9 6.293 15.962 6.176 21.701.004-.121-.14-.236-.29-.369-.423-.597-.601-1.305-1.052-2.069-1.393-.999-.445-2.028-.823-3.037-1.246a12.819 12.819 0 0 1-1.405-.669c-.513-.292-.845-.731-.86-1.358a70.04 70.04 0 0 0-.051-1.519 1.268 1.268 0 0 1 .279-.876c.778-1.008 1.184-2.152 1.191-3.43.001-.201.085-.323.236-.442.337-.267.637-.583.727-1.018.097-.467.166-.943.211-1.419.036-.388-.006-.766-.499-.806.069-.585.16-1.126.192-1.669.064-1.109-.056-2.193-.615-3.184-.481-.853-1.207-1.321-2.199-1.359a1.368 1.368 0 0 1-.392-.089c-1.257-.432-2.556-.564-3.85-.306-2.519.502-4.027 2.668-3.724 5.246.053.445.137.886.212 1.363-.346.018-.549.217-.542.546.018.978.036 1.967.902 2.658.216.173.272.39.294.645.031.366.073.733.132 1.096.137.852.634 1.533 1.08 2.24.11.175.2.396.208.599.022.56 0 1.122-.012 1.684-.012.563-.271.997-.731 1.309a3.976 3.976 0 0 1-.671.393c-.566.241-1.141.463-1.717.68-1.193.449-2.375.922-3.435 1.647-.444.304-.855.642-1.186 1.095z" style="fill:var(--color4, #d0cfcf)"/></symbol><symbol id="icon-success-image" viewBox="0 0 36 32"><path fill="#ebebeb" d="M35.523 29.555h-2.852v.021h2.852v-.021zM25.305 29.787h-.748v.021h.748v-.021zM32.585 28.758h-1.652v.021h1.652v-.021zM5.022 28.902H1.303v.021h3.719v-.021zM6.334 28.902h-.545v.021h.545v-.021zM16.172 29.264H8.106v.021h8.066v-.021z" style="fill:var(--color5, #ebebeb)"/><path fill="#e5f7ff" d="M17.226 2.784c-1.252 1.385-1.872 3.271-1.766 5.132s.795 3.642 1.633 5.308c.734 1.459 1.612 3.114 1.011 4.633-.336.849-1.101 1.477-1.948 1.827s-1.774.451-2.69.496c-1.56.078-3.143.007-4.661.371s-3.013 1.265-3.6 2.706c-.691 1.699.094 3.731 1.478 4.937s3.243 1.724 5.066 1.981c2.554.358 5.17.268 7.693-.264 2.026-.428 4.019-1.156 5.672-2.398s2.942-3.04 3.296-5.072c.353-2.032-.332-4.279-1.949-5.567-.672-.536-1.483-.902-2.073-1.527s-.889-1.666-.342-2.328c.362-.437.971-.571 1.536-.639 2.778-.33 5.856.24 8.18-1.313 1.33-.889 2.191-2.405 2.381-3.99s-.154-3.299-1.156-4.544c-2.732-3.389-14.416-3.45-17.761.25z" style="fill:var(--color6, #e5f7ff)"/><path fill="#e5f7ff" d="M18.312 32c9.22 0 16.694-.435 16.694-.971s-7.474-.971-16.694-.971c-9.22 0-16.694.435-16.694.971S9.092 32 18.312 32z" style="fill:var(--color6, #e5f7ff)"/><path fill="#00bdd3" d="m16.94 17.423.215-1.237.423.123-.638 1.115zM17.082 17.818l1.211-.348-.168-.406-1.043.754zM17.298 17.354l.69-1.299.464.322-1.154.977zM5.904 19.302h-.545c-.024 0-.043-.019-.043-.043s.019-.043.043-.043h.545c.024 0 .043.019.043.043s-.019.043-.043.043zM4.996 19.302H2.264c-.024 0-.043-.019-.043-.043s.019-.043.043-.043h2.731c.024 0 .043.019.043.043s-.019.043-.042.043zM14.683 24.263a.04.04 0 0 1-.029-.011.044.044 0 0 1-.003-.061l.255-.276c.016-.017.043-.018.061-.003s.019.043.003.061l-.255.276a.045.045 0 0 1-.032.014zM12.348 26.46a.047.047 0 0 1-.039-.023.043.043 0 0 1 .019-.058c.798-.402 2.062-1.906 2.075-1.921.015-.018.042-.021.06-.005s.021.042.005.06c-.053.063-1.289 1.532-2.103 1.943-.004.003-.011.004-.018.004z" style="fill:var(--color7, #00bdd3)"/><path fill="#f6b69e" d="m18.544 25.99.615-.507-1.548-1.463-.66.562 1.594 1.408z" style="fill:var(--color8, #f6b69e)"/><path fill="#00bdd3" d="M19.656 25.289c-.041-.026-.126-.014-.213.01a1.938 1.938 0 0 0-.203.072l-.068.03c-.008.002-.013.009-.014.018-.001.003.001.006.003.009.003.004.007.008.012.009.087.023.176.038.267.045.044.006.09.003.132-.009l.006-.002a.364.364 0 0 0 .07-.031.111.111 0 0 0 .041-.095.065.065 0 0 0-.032-.054zm-.008.056a.065.065 0 0 1-.028.064c-.016.014-.04.022-.07.028s-.065.008-.105.005a1.132 1.132 0 0 1-.164-.021l-.041-.008a1.091 1.091 0 0 1 .356-.101c.013 0 .025.003.036.009.009.005.015.014.014.022z" style="fill:var(--color7, #00bdd3)"/><path fill="#00bdd3" d="M19.375 24.967a.146.146 0 0 0-.115.096c-.052.111-.025.278-.019.309l.001.004a.018.018 0 0 0 .013.015.013.013 0 0 0 .012.001c.003 0 .005-.002.008-.004a.646.646 0 0 0 .12-.151c.053-.087.091-.184.068-.235-.009-.02-.032-.043-.088-.033zm.052.05c.015.033-.014.11-.058.185a.727.727 0 0 1-.094.129.558.558 0 0 1 .013-.233.163.163 0 0 1 .022-.046.112.112 0 0 1 .059-.044l.012-.002c.036-.006.043.007.045.011z" style="fill:var(--color7, #00bdd3)"/><path fill="#0e1f3d" d="m19.079 25.448-.771.388a.067.067 0 0 0-.036.081l.227.719c.025.07.102.107.174.082l.014-.005c1.322-.462 1.726-.79 1.865-.864.393-.214.172-.491.026-.457-.659.157-.88.117-1.165.043-.152-.023-.287-.009-.333.015z" style="fill:var(--color9, #0e1f3d)"/><path d="m17.611 24.022.784.692-.661.562-.784-.692.66-.562z" opacity=".2" style="fill:var(--color2, #000)"/><path fill="#00bdd3" d="m17.367 25.27.986-.905-.217-.38-1.14.975.371.31z" style="fill:var(--color7, #00bdd3)"/><path fill="#fff" d="m17.367 25.27.986-.905-.217-.38-1.14.975.371.31z" opacity=".5" style="fill:var(--color3, #fff)"/><path fill="#00bdd3" d="m17.981 24.118-.132.113-.197.169-.118.1-.344.294-.066.056s-1.404-.788-2.186-1.461c-.536-.461-.584-.633-.64-.59-.755.572-2.99 2.549-4.257 3.578-.041.004-.082.009-.124.011-.677.05-1.209-.025-1.622-.182-.004-.547.466-1.825.505-1.948 0 0 1.869-1.85 4.897-3.414.03-.015.061-.027.091-.04.04-.017.078-.033.119-.048.158-.06.313-.097.464-.105a1.01 1.01 0 0 1 .393.062 2.05 2.05 0 0 1 .386.193c.094.059.184.125.269.19.193.148 1.656 2.025 2.443 2.891v.001c.041.049.081.092.118.13z" style="fill:var(--color7, #00bdd3)"/><path fill="#f6b69e" d="M8.006 16.219c.118.534.242 1.314-.126 1.68a11.881 11.881 0 0 0 1.634 2.221c.807-1.397.042-2.26.042-2.26-.604-.129-.595-.371-.5-.79l-1.05-.851z" style="fill:var(--color8, #f6b69e)"/><path fill="#00bdd3" d="M7.507 17.967a.68.68 0 0 1 .262-.357c.121-.093 1.374-.106 1.7 0 .19.06.352.187.455.358l-2.418-.001z" style="fill:var(--color7, #00bdd3)"/><path fill="#f6b69e" d="m13.29 20.093.325-.148.016.526s-.152.135-.318.186a.216.216 0 0 1-.271-.258.46.46 0 0 1 .248-.307z" style="fill:var(--color8, #f6b69e)"/><path fill="#f6b69e" d="m14.029 20.095-.017.193a.136.136 0 0 1-.107.123l-.277.062-.016-.526.282.004a.134.134 0 0 1 .136.133v.012zM9.174 21.591c.487.239 1.085.377 1.671.278.69-.116 1.893-.806 2.417-1.202l-.177-.262c-.261.056-2.393 1.134-3.77.159-.257-.182-1.264-.93-1.62-.915-.578.026-.528.628-.28.88.292.293 1.36.867 1.759 1.062z" style="fill:var(--color8, #f6b69e)"/><path d="M14.012 20.288a.138.138 0 0 1-.107.123l-.276.062v.001s-.152.135-.317.186a.182.182 0 0 1-.051.009l-.001.001c-.523.396-1.725 1.085-2.416 1.201-.586.098-1.184-.039-1.671-.279-.399-.195-1.469-.769-1.759-1.062-.248-.251-.298-.853.28-.88.356-.015 1.364.733 1.62.915 1.314.93 3.313-.008 3.722-.145l.003-.019a.456.456 0 0 1 .247-.308l.321-.146.004-.001.279.003a.134.134 0 0 1 .135.134v.011l-.016.194z" opacity=".04" style="fill:var(--color2, #000)"/><path d="m13.614 19.946-.003.001v-.001h.003z" opacity=".04" style="fill:var(--color2, #000)"/><path fill="#00bdd3" d="M10.979 18.828c.731 1.604-.964 2.062-.188 4.693l-3.685.088c.025-1.41.528-1.107-.135-3.757-.056-.225-.15-.869.09-1.455a1.07 1.07 0 0 1 .478-.539c.272-.147 1.471-.032 2.017.004.592-.082 1.314.766 1.422.966z" style="fill:var(--color7, #00bdd3)"/><path fill="#fff" d="M10.979 18.828c.731 1.604-.964 2.062-.188 4.693l-3.685.088c.025-1.41.528-1.107-.135-3.757-.056-.225-.15-.869.09-1.455a1.07 1.07 0 0 1 .478-.539c.272-.147 1.471-.032 2.017.004.592-.082 1.314.766 1.422.966z" opacity=".5" style="fill:var(--color3, #fff)"/><path fill="#0e1f3d" d="M10.275 15.646c-.01.07.018.128.062.134s.089-.043.098-.111c.01-.068-.018-.128-.062-.134-.044-.005-.089.044-.098.111z" style="fill:var(--color9, #0e1f3d)"/><path fill="#0e1f3d" d="m10.353 15.537.169-.023c0-.001-.102.114-.169.023z" style="fill:var(--color9, #0e1f3d)"/><path fill="#a02724" d="M10.286 15.738s.072.307.179.464c-.102.07-.248.01-.248.01l.069-.474z" style="fill:var(--color10, #a02724)"/><path fill="#0e1f3d" d="M10.519 15.174a.042.042 0 0 0 .025-.031.04.04 0 0 0-.034-.045.401.401 0 0 0-.35.11c-.016.015-.017.04-.003.057s.04.017.057.003l.005-.006a.322.322 0 0 1 .278-.083c.007.001.015 0 .021-.003z" style="fill:var(--color9, #0e1f3d)"/><path fill="#f6b69e" d="M8.045 15.091c-.07.836-.117 1.188.241 1.674.539.731 1.586.635 1.904-.164.288-.719.354-1.964-.412-2.412a1.153 1.153 0 0 0-1.575.4 1.134 1.134 0 0 0-.158.502z" style="fill:var(--color8, #f6b69e)"/><path fill="#0e1f3d" d="M10.209 16.55a.447.447 0 0 1-.139-.204c-.003-.009.003-.018.012-.021s.018.003.021.012c.025.069.066.13.12.179l-.013.034zM7.447 14.004c-.32.432-.466.544-.07 1.694.159.462.622 1.074.846 1.13.403.101.795-.181 1.098-.465.265-.249.519-.517.68-.842s.22-.714.088-1.051c-.145-.366-.655-.693-1.037-.773-.449-.094-1.339-.052-1.605.307z" style="fill:var(--color9, #0e1f3d)"/><path fill="#0e1f3d" d="M9.957 15.592s.101.172-.027.301l.003-.23.024-.071z" style="fill:var(--color9, #0e1f3d)"/><path fill="#0e1f3d" d="M9.956 15.592s.037.264-.185.363l.12-.286.065-.077zM8.477 16.73s-.245.111-.209.35l.178-.253.031-.097z" style="fill:var(--color9, #0e1f3d)"/><path fill="#0e1f3d" d="M8.487 16.735s-.186.192-.064.402l.071-.301-.008-.101zM10.292 15.248c.087-.089.176-.18.239-.287s.103-.234.084-.357c-.025-.16-.146-.291-.286-.371s-.301-.116-.46-.151c-.078-.017-.164-.033-.232.008-.066.04-.095.123-.09.199s.034.148.062.219c.109.279.178.565.231.858.027.148.006.246.153.19.098-.039.224-.231.299-.308z" style="fill:var(--color9, #0e1f3d)"/><path fill="#f6b69e" d="M9.133 15.66a.73.73 0 0 0 .19.526c.175.189.397.065.461-.17.059-.211.036-.563-.193-.665s-.446.073-.458.309zM18.899 26.376l.665-.646-1.286-1.611-.804.472 1.426 1.784z" style="fill:var(--color8, #f6b69e)"/><path fill="#00bdd3" d="M20.242 25.532c-.074-.026-.226.057-.34.129l-.078.051-.002.001a.106.106 0 0 0-.011.009l-.052.037a.018.018 0 0 0-.01.021c.003.009.01.015.019.015.079.003.158.001.238-.008l.053-.006a.323.323 0 0 0 .207-.092.116.116 0 0 0 .022-.109.076.076 0 0 0-.046-.05zm.005.061a.074.074 0 0 1-.014.074c-.022.027-.067.05-.131.065a.924.924 0 0 1-.178.024c-.027.001-.057.003-.087.003a.194.194 0 0 1 .029-.021l.021-.015a1.16 1.16 0 0 1 .301-.15.082.082 0 0 1 .041.001c.009.003.015.01.018.02z" style="fill:var(--color7, #00bdd3)"/><path fill="#00bdd3" d="M19.873 25.258a.154.154 0 0 0-.088.087c-.054.132.026.335.04.367l.001.001.001.003a.021.021 0 0 0 .017.013.02.02 0 0 0 .013-.002c.003-.001.006-.003.007-.005l.003-.003a.306.306 0 0 0 .036-.058c.064-.119.123-.318.071-.387-.015-.02-.044-.039-.1-.016zm-.021.406c-.023-.068-.065-.212-.027-.301a.113.113 0 0 1 .053-.059l.012-.006c.037-.015.047-.002.05.003.037.05-.021.253-.088.363z" style="fill:var(--color7, #00bdd3)"/><path d="m18.209 24.021.606.773-.82.454-.616-.752.829-.475z" opacity=".2" style="fill:var(--color2, #000)"/><path fill="#0e1f3d" d="m7.073 23.33-.085.333c-.013.027.019.052.061.051l3.795-.089c.034-.002.06-.018.062-.039l-.095-.349c.003-.022-.028-.041-.064-.04l-3.614.105a.067.067 0 0 0-.061.028z" style="fill:var(--color9, #0e1f3d)"/><path fill="#00bdd3" d="m10.45 23.663-.1.01c-.02-.001-.036-.006-.036-.018l-.002-.43c0-.012.016-.024.036-.027l.1-.011c.02.001.036.006.036.019l.002.43c-.001.012-.016.024-.036.027zM9.091 23.681l-.1.01c-.02-.001-.035-.006-.036-.018l-.001-.43c0-.012.016-.024.036-.027l.099-.011c.02.001.036.006.036.019l.002.43c0 .014-.016.024-.036.027z" style="fill:var(--color7, #00bdd3)"/><path fill="#00bdd3" d="m18.718 24.366-.168.094-.001.001-.288.162-.259.145-.001.001-.266.149v.001l-.102.057-.064-.046-.054-.04c-.063-.047-.152-.113-.254-.195v-.001c-.536-.421-1.489-1.25-1.772-2.003-.183.218-.403.49-.654.792-1.082 1.301-2.766 3.136-4.788 3.376-.041.006-.082.009-.124.013-.676.058-1.209-.009-1.624-.161-1.05-.382-1.342-1.302-1.27-2.083v-.003c.006-.365.078-1.017.078-1.017l3.829.004c.54-.652 1.622-1.674 2.729-2.319.026-.016.053-.032.079-.045.033-.02.066-.037.099-.055.36-.196.72-.348 1.061-.43.076-.018.151-.033.225-.045.077-.012.154-.019.229-.022v.001c.524-.024.98.171 1.289.692l2.071 2.976z" style="fill:var(--color7, #00bdd3)"/><path fill="#0e1f3d" d="m16.603 20.616-4.17.171a.192.192 0 0 1-.204-.205l.123-2.664a.238.238 0 0 1 .224-.223l4.17-.171a.192.192 0 0 1 .204.205l-.123 2.664a.238.238 0 0 1-.224.223z" style="fill:var(--color9, #0e1f3d)"/><path fill="#00bdd3" d="m16.652 20.404-4.231.174.124-2.681 4.231-.174-.124 2.681z" style="fill:var(--color7, #00bdd3)"/><path fill="#fff" d="m16.652 20.404-4.231.174.124-2.681 4.231-.174-.124 2.681z" opacity=".9" style="fill:var(--color3, #fff)"/><path fill="#fff" d="m14.046 17.636-.699 3.112.278-.011.69-3.112-.269.011zM14.475 17.619l-.699 3.113.552-.023.69-3.112-.542.022z" opacity=".1" style="fill:var(--color3, #fff)"/><path fill="#00bdd3" d="m15.278 20.65 1.409-.04c.024.163-.046.224-.135.226l-1.218.031-2.901.084-.023-.203 2.869-.099z" style="fill:var(--color7, #00bdd3)"/><path fill="#00bdd3" d="m15.278 20.649 1.409-.039c.024.163-.046.224-.135.226l-1.218.031-3.59.11a.104.104 0 0 1-.007-.207l3.542-.12z" style="fill:var(--color7, #00bdd3)"/><path d="m15.278 20.649 1.409-.039c.024.163-.046.224-.135.226l-1.218.031-3.59.11a.104.104 0 0 1-.007-.207l3.542-.12z" opacity=".2" style="fill:var(--color2, #000)"/><path d="m16.687 20.61.009.057a.15.15 0 0 1-.144.17l-.45.011-.836.03.014-.228 1.408-.039zM9.391 18.907s-.199.404.375 1.47l.24.435c.079.143.606-.149.763-.418 0 0-1.007-.602-1.378-1.488z" opacity=".2" style="fill:var(--color2, #000)"/><path fill="#f6b69e" d="m14.261 20.15.4-.117-.065.616s-.559.372-.753.016l.078-.199a.54.54 0 0 1 .339-.316z" style="fill:var(--color8, #f6b69e)"/><path fill="#f6b69e" d="m15.122 20.276-.05.222a.16.16 0 0 1-.144.125l-.333.026.065-.616.327.051a.158.158 0 0 1 .137.177l-.002.015zM10.928 21.193c.279.377.672.692 1.134.782.544.106 1.591-.66 2.082-1.157-.025-.209-.01-.322-.22-.352 0 0-.54.394-1.559.631-.329.076-.548-.259-.836-.747-.143-.244-.606-1.241-.781-1.463-.28-.357-1.078-.101-.761.757.133.361.714 1.239.942 1.548z" style="fill:var(--color8, #f6b69e)"/><path fill="#00bdd3" d="M10.63 18.305c.567.518.842 1.434.842 1.434l-1.322.803s-.967-1.351-.795-1.822c.136-.365.388-.605.72-.626a.762.762 0 0 1 .555.212zM7.597 23.733l-.1.003c-.02-.003-.035-.009-.034-.022l.036-.428c.002-.013.018-.023.038-.024l.1-.003c.02.003.035.01.034.022l-.036.429c-.001.012-.018.025-.038.023zM17.47 25.159l1.288-.641-.11-.456-1.469.668.291.43z" style="fill:var(--color7, #00bdd3)"/><path fill="#fff" d="m17.47 25.159 1.288-.641-.11-.456-1.469.668.291.43z" opacity=".5" style="fill:var(--color3, #fff)"/><path fill="#0e1f3d" d="m19.512 25.66-.889.268a.072.072 0 0 0-.053.079l.107.803a.146.146 0 0 0 .168.119l.015-.004c1.484-.246 1.974-.517 2.134-.571.456-.153.274-.489.112-.478-.727.045-.953-.039-1.242-.169-.154-.054-.299-.063-.352-.047zM7.564 15.081c-.267.042-.531-.162-.615-.418s-.015-.541.122-.773c.101-.171.761-.578 1.006-.12.487.911-.514 1.311-.514 1.311z" style="fill:var(--color9, #0e1f3d)"/><path fill="#00bdd3" d="m16.614 18.642-2.605.111.012-.257 2.604-.111-.012.257z" style="fill:var(--color7, #00bdd3)"/><path fill="#fff" d="m16.614 18.642-2.605.111.012-.257 2.604-.111-.012.257z" opacity=".49" style="fill:var(--color3, #fff)"/><path fill="#00bdd3" d="m16.598 19-2.605.11.011-.257 2.604-.11-.011.257z" style="fill:var(--color7, #00bdd3)"/><path fill="#fff" d="m16.598 19-2.605.11.011-.257 2.604-.11-.011.257z" opacity=".49" style="fill:var(--color3, #fff)"/><path fill="#00bdd3" d="m16.582 19.357-2.605.111.012-.257 2.604-.111-.012.257z" style="fill:var(--color7, #00bdd3)"/><path fill="#fff" d="m16.582 19.357-2.605.111.012-.257 2.604-.111-.012.257z" opacity=".49" style="fill:var(--color3, #fff)"/><path fill="#00bdd3" d="m16.566 19.714-2.605.11.012-.257 2.604-.11-.012.257z" style="fill:var(--color7, #00bdd3)"/><path fill="#fff" d="m16.566 19.714-2.605.11.012-.257 2.604-.11-.012.257z" opacity=".49" style="fill:var(--color3, #fff)"/><path fill="#00bdd3" d="m16.55 20.071-2.605.111.011-.257 2.604-.111-.011.257z" style="fill:var(--color7, #00bdd3)"/><path fill="#fff" d="m16.55 20.071-2.605.111.011-.257 2.604-.111-.011.257z" opacity=".49" style="fill:var(--color3, #fff)"/><path fill="#00bdd3" d="m12.958 18.897-.209.009.004.086.209-.009-.004-.086z" style="fill:var(--color7, #00bdd3)"/><path fill="#fff" d="m12.958 18.897-.209.009.004.086.209-.009-.004-.086z" opacity=".25" style="fill:var(--color3, #fff)"/><path fill="#00bdd3" d="m12.949 19.144-.209.009.004.086.209-.009-.004-.086z" style="fill:var(--color7, #00bdd3)"/><path fill="#fff" d="m12.949 19.144-.209.009.004.086.209-.009-.004-.086z" opacity=".25" style="fill:var(--color3, #fff)"/><path fill="#00bdd3" d="m12.938 19.391-.209.009.004.086.209-.009-.004-.086z" style="fill:var(--color7, #00bdd3)"/><path fill="#fff" d="m12.938 19.391-.209.009.004.086.209-.009-.004-.086z" opacity=".25" style="fill:var(--color3, #fff)"/><path fill="#00bdd3" d="m12.929 19.639-.209.009.004.086.209-.009-.004-.086z" style="fill:var(--color7, #00bdd3)"/><path fill="#fff" d="m12.929 19.639-.209.009.004.086.209-.009-.004-.086z" opacity=".25" style="fill:var(--color3, #fff)"/><path fill="#00bdd3" d="m12.918 19.886-.209.009.004.086.209-.009-.004-.086z" style="fill:var(--color7, #00bdd3)"/><path fill="#fff" d="m12.713 19.982.008-.087.208-.009-.008.086-.208.009z" opacity=".25" style="fill:var(--color3, #fff)"/><path fill="#00bdd3" d="m12.908 20.133-.209.009.004.086.209-.009-.004-.086z" style="fill:var(--color7, #00bdd3)"/><path fill="#fff" d="m12.908 20.133-.209.009.004.086.209-.009-.004-.086z" opacity=".25" style="fill:var(--color3, #fff)"/><path fill="#00bdd3" d="m13.175 18.66-.432.16.004-.113.239-.039-.237-.016.004-.113.421.121zM15.814 18.251l-1.805.076.009-.178 1.805-.076-.009.178z" style="fill:var(--color7, #00bdd3)"/><path fill="#fff" d="m15.814 18.251-1.805.076.009-.178 1.805-.076-.009.178z" opacity=".49" style="fill:var(--color3, #fff)"/><path fill="#00bdd3" d="m13.379 18.344-.264.011.107-.068.029.027.032-.028.096.058zM13.211 18.279l-.107.068.008-.157.099.089zM13.396 18.185l-.009.149-.097-.057.106-.093z" style="fill:var(--color7, #00bdd3)"/><path fill="#fff" d="m13.254 18.251-.006.006.001.001.006-.006-.001-.001z" style="fill:var(--color3, #fff)"/><path fill="#fff" d="m13.249 18.253-.001.001.006.006.001-.001-.006-.006z" style="fill:var(--color3, #fff)"/><path fill="#00bdd3" d="m13.396 18.171-.114.103-.032.027-.029-.026-.099-.089-.008-.008.281-.007zM12.959 18.198l-.209.009.001.026.209-.009-.001-.026zM12.959 18.263l-.209.009.001.026.209-.009-.001-.026zM12.959 18.329l-.209.009.001.026.209-.009-.001-.026zM25.089 5.305h-1.254a.205.205 0 1 1 0-.41h1.254a.205.205 0 1 1 0 .41z" style="fill:var(--color7, #00bdd3)"/><path fill="#fff" d="M25.089 5.305h-1.254a.205.205 0 1 1 0-.41h1.254a.205.205 0 1 1 0 .41z" opacity=".49" style="fill:var(--color3, #fff)"/><path fill="#00bdd3" d="m29.691 9.516-4.81 8.814a.236.236 0 0 1-.319.093l-8.184-4.429a.233.233 0 0 1-.094-.317l6.255-11.464a.236.236 0 0 1 .319-.093l5.515 2.984 1.317 4.412z" style="fill:var(--color7, #00bdd3)"/><path fill="#fff" d="m29.691 9.516-4.81 8.814a.236.236 0 0 1-.319.093l-8.184-4.429a.233.233 0 0 1-.094-.317l6.255-11.464a.236.236 0 0 1 .319-.093l5.515 2.984 1.317 4.412z" opacity=".04" style="fill:var(--color3, #fff)"/><path fill="#00bdd3" d="M26.992 11.494 20.88 8.21l-.204.377 6.112 3.284.204-.377zM26.157 13.036l-6.112-3.284-.204.377 6.112 3.284.204-.377zM25.322 14.578l-6.112-3.284-.204.377 6.112 3.284.204-.377zM28.38 5.1l-1.45 2.659a.233.233 0 0 0 .094.317l2.661 1.44-1.305-4.417z" style="fill:var(--color7, #00bdd3)"/><path fill="#fff" d="m28.38 5.1-1.45 2.659a.233.233 0 0 0 .094.317l2.661 1.44-1.305-4.417z" opacity=".7" style="fill:var(--color3, #fff)"/><path fill="#00bdd3" d="m30.944 9.219-4.809 8.814a.236.236 0 0 1-.319.093l-8.184-4.429a.233.233 0 0 1-.094-.317l6.255-11.464a.236.236 0 0 1 .319-.093l5.515 2.984 1.317 4.412z" style="fill:var(--color7, #00bdd3)"/><path fill="#fff" d="m30.944 9.219-4.809 8.814a.236.236 0 0 1-.319.093l-8.184-4.429a.233.233 0 0 1-.094-.317l6.255-11.464a.236.236 0 0 1 .319-.093l5.515 2.984 1.317 4.412z" opacity=".25" style="fill:var(--color3, #fff)"/><path fill="#00bdd3" d="m28.083 11.11-5.786-3.108a.186.186 0 0 0-.251.075l-.028.052a.185.185 0 0 0 .075.25l5.786 3.108c.09.048.202.015.251-.075l.028-.052a.183.183 0 0 0-.075-.25zM27.248 12.651l-5.786-3.108a.186.186 0 0 0-.251.075l-.028.052a.185.185 0 0 0 .075.25l5.786 3.108c.09.048.202.015.251-.075l.028-.052a.184.184 0 0 0-.075-.25zM26.413 14.193l-5.786-3.108a.186.186 0 0 0-.251.075l-.028.052a.185.185 0 0 0 .075.25l5.786 3.108c.09.048.202.015.251-.075l.028-.052a.183.183 0 0 0-.075-.25zM29.635 4.804l-1.451 2.659a.233.233 0 0 0 .094.317l2.661 1.44-1.304-4.417z" style="fill:var(--color7, #00bdd3)"/><path fill="#fff" d="m29.635 4.804-1.451 2.659a.233.233 0 0 0 .094.317l2.661 1.44-1.304-4.417z" opacity=".7" style="fill:var(--color3, #fff)"/><path fill="#f4e041" d="m29.302.763.405 1.789c-1.532.419-2.908 1.929-3.897 3.357a8.268 8.268 0 0 0-.968 1.909s3.09-2.784 4.794-2.947l-.081 2.958s1.767-3.427 5.199-4.681c-.001-.001-2.875-2.062-5.452-2.385z" style="fill:var(--color1, #f4e041)"/><path fill="#00bdd3" d="m8.454 20.313.781 8.889H7.976l-.84-9.565h.577a.74.74 0 0 1 .741.677z" style="fill:var(--color7, #00bdd3)"/><path d="m8.462 20.392.774 8.809H7.977l-.84-9.565h.496c.431 0 .791.328.829.756z" opacity=".2" style="fill:var(--color2, #000)"/><path fill="#00bdd3" d="m7.636 20.215.79 8.987H.932l-.78-8.876a.635.635 0 0 1 .635-.689h6.215c.332 0 .607.251.635.579z" style="fill:var(--color7, #00bdd3)"/><path fill="#fff" d="m7.645 20.313.781 8.889H.932l-.77-8.759a.743.743 0 0 1 .741-.806h5.999c.387 0 .709.293.742.677z" opacity=".2" style="fill:var(--color3, #fff)"/><path fill="#00bdd3" d="M20.825 29.201H.966L.75 26.736h19.063c.44 0 .827.355.865.793l.146 1.672z" style="fill:var(--color7, #00bdd3)"/><path fill="#fff" d="M20.825 29.201H.966L.75 26.736h19.063c.44 0 .827.355.865.793l.146 1.672z" opacity=".2" style="fill:var(--color3, #fff)"/><path fill="#00bdd3" d="M21.736 30.145H.733a.492.492 0 1 1 0-.982h21.003a.492.492 0 1 1 0 .982z" style="fill:var(--color7, #00bdd3)"/><path d="M21.736 30.145H9.543a.492.492 0 1 1 0-.982h12.193a.492.492 0 1 1 0 .982z" opacity=".2" style="fill:var(--color2, #000)"/><path fill="#263238" d="m1.008 30.145.249.844h.498l.274-.844h-1.02z" style="fill:var(--color11, #263238)"/><path fill="#fff" d="m1.008 30.145.249.844h.498l.274-.844h-1.02z" opacity=".5" style="fill:var(--color3, #fff)"/><path fill="#263238" d="m8.14 30.145.249.844h.498l.274-.844h-1.02z" style="fill:var(--color11, #263238)"/><path fill="#fff" d="m8.14 30.145.249.844h.498l.274-.844h-1.02z" opacity=".5" style="fill:var(--color3, #fff)"/><path fill="#263238" d="m13.599 30.145.249.844h.498l.274-.844H13.6z" style="fill:var(--color11, #263238)"/><path fill="#fff" d="m13.599 30.145.249.844h.498l.274-.844H13.6z" opacity=".5" style="fill:var(--color3, #fff)"/><path fill="#263238" d="m20.73 30.145.249.844h.498l.274-.844h-1.02z" style="fill:var(--color11, #263238)"/><path fill="#fff" d="m20.73 30.145.249.844h.498l.274-.844h-1.02z" opacity=".5" style="fill:var(--color3, #fff)"/><path fill="#ea5924" d="M28.848 16.58c0 1.9-1.541 3.44-3.442 3.44a3.44 3.44 0 1 1 3.442-3.44z" style="fill:var(--color12, #ea5924)"/><path fill="#fff" d="m24.961 17.295-.564-.564c-.063-.063-.163-.063-.226 0s-.063.163 0 .225l.675.675a.16.16 0 0 0 .227 0l1.708-1.705a.16.16 0 0 0-.226-.225l-1.595 1.594z" style="fill:var(--color3, #fff)"/></symbol></defs></svg>